<svg xmlns="http://www.w3.org/2000/svg" width="20.767" height="20.763" viewBox="0 0 20.767 20.763">
  <path id="instagram-brands" d="M10.311,36.883a5.323,5.323,0,1,0,5.323,5.323A5.315,5.315,0,0,0,10.311,36.883Zm0,8.784a3.461,3.461,0,1,1,3.461-3.461A3.467,3.467,0,0,1,10.311,45.668Zm6.783-9a1.242,1.242,0,1,1-1.242-1.242A1.239,1.239,0,0,1,17.094,36.665Zm3.526,1.26a6.145,6.145,0,0,0-1.677-4.351,6.185,6.185,0,0,0-4.35-1.677c-1.714-.1-6.852-.1-8.566,0a6.176,6.176,0,0,0-4.35,1.673A6.165,6.165,0,0,0,0,37.921c-.1,1.714-.1,6.852,0,8.567a6.145,6.145,0,0,0,1.677,4.351,6.193,6.193,0,0,0,4.35,1.677c1.714.1,6.852.1,8.566,0a6.144,6.144,0,0,0,4.35-1.677,6.185,6.185,0,0,0,1.677-4.351C20.717,44.774,20.717,39.64,20.619,37.926ZM18.4,48.327A3.5,3.5,0,0,1,16.431,50.3c-1.367.542-4.61.417-6.12.417s-4.758.12-6.12-.417a3.5,3.5,0,0,1-1.974-1.974c-.542-1.367-.417-4.61-.417-6.12s-.12-4.758.417-6.12a3.5,3.5,0,0,1,1.974-1.974c1.367-.542,4.61-.417,6.12-.417s4.758-.12,6.12.417A3.5,3.5,0,0,1,18.4,36.086c.542,1.367.417,4.61.417,6.12S18.947,46.965,18.4,48.327Z" transform="translate(0.075 -31.825)" fill="#054f98"/>
</svg>
